<svg xmlns="http://www.w3.org/2000/svg" viewBox="0 0 410 404" fill="none">
  <path d="M399.641 59.525L215.643 388.545c-3.807 6.812-13.594 6.837-17.434.045L9.84 59.515c-4.153-7.28 2.076-16.23 10.198-14.663l184.06 35.52a10 10 0 003.783 0l181.561-35.51c8.113-1.588 14.357 7.338 10.2 14.663z" fill="#41D1FF"/>
  <path d="M292.965.543L156.412 27.32a5 5 0 00-4.092 4.14L133.904 156.23a5 5 0 006.21 5.726l38.001-9.116a5 5 0 016.027 6.003l-11.287 55.259a5 5 0 006.42 5.86l23.473-7.125a5 5 0 016.376 5.981l-17.94 86.324c-1.123 5.405 6.07 8.354 9.055 3.714l1.994-3.1 111.28-222.08a5 5 0 00-5.308-7.135l-39.14 7.552a5 5 0 01-5.776-5.94l25.543-125.14a5 5 0 00-5.867-5.879z" fill="#BD34FE"/>
</svg>
